<?xml version="1.0" standalone="no"?><!DOCTYPE svg PUBLIC "-//W3C//DTD SVG 1.1//EN" "http://www.w3.org/Graphics/SVG/1.1/DTD/svg11.dtd"><svg t="1591236807312" class="icon" viewBox="0 0 1024 1024" version="1.1" xmlns="http://www.w3.org/2000/svg" p-id="1270" xmlns:xlink="http://www.w3.org/1999/xlink" width="200" height="200"><defs><style type="text/css"></style></defs><path d="M512.000918 511.997247c-125.270728 0-229.799445-90.438835-251.747429-209.457591 14.627706-10.295746 24.192893-27.28951 24.192893-46.535526 0-31.419556-25.468619-56.895517-56.888175-56.895517-31.419556 0-56.888175 25.475961-56.888175 56.895517 0 22.766651 13.386857 42.405479 32.709966 51.489746 24.62976 148.108966 153.635886 261.391546 308.628262 261.391546 154.985034 0 283.991159-113.28258 308.620919-261.391546 19.32311-9.084266 32.702624-28.723095 32.702624-51.489746 0-31.419556-25.461276-56.895517-56.880833-56.895517s-56.895517 25.475961-56.895517 56.895517c0 19.246016 9.572529 36.247122 24.200236 46.535526C741.798528 421.565754 637.278988 511.997247 512.000918 511.997247L512.000918 511.997247zM910.219979 0l-28.409212 0c-0.007342 0-0.022027 0-0.036712 0L682.665443 0c-0.007342 0-0.022027 0-0.036712 0l-3.550004 0c0.022027 0.07893 0.042218 0.165202 0.056903 0.244132-14.038486 1.734619-24.91611 13.687891-24.91611 28.199956 0 14.512065 10.877624 26.465336 24.91611 28.199956-0.022027 0.086272-0.036712 0.165202-0.056903 0.244132l231.139416 0c31.362654 0 56.895517 25.532864 56.895517 56.888175l0 796.4473c0 31.362654-25.532864 56.888175-56.895517 56.888175L113.780021 967.111825c-31.362654 0-56.888175-25.525521-56.888175-56.888175L56.891846 113.77635c0-31.355311 25.525521-56.888175 56.888175-56.888175L316.47535 56.888175c-0.022027-0.07893-0.034876-0.15786-0.056903-0.244132 14.038486-1.734619 24.91611-13.687891 24.91611-28.199956 0-14.512065-10.877624-26.465336-24.91611-28.199956 0.014685-0.086272 0.034876-0.165202 0.056903-0.244132l-3.548169 0c-0.014685 0-0.022027 0-0.036712 0L113.780021 0c-0.027534 0-0.049561 0-0.071587 0C50.990469 0.042218 0.003671 51.051043 0.003671 113.77635l0 796.4473c0 62.747334 51.023509 113.77635 113.77635 113.77635l796.439957 0c62.754676 0 113.77635-51.030852 113.77635-113.77635L1023.996329 113.77635C1023.996329 51.023509 972.974655 0 910.219979 0L910.219979 0zM910.219979 0" p-id="1271"></path></svg>