<?xml version="1.0" standalone="no"?><!DOCTYPE svg PUBLIC "-//W3C//DTD SVG 1.1//EN" "http://www.w3.org/Graphics/SVG/1.1/DTD/svg11.dtd"><svg t="1591237075008" class="icon" viewBox="0 0 1028 1024" version="1.1" xmlns="http://www.w3.org/2000/svg" p-id="1968" xmlns:xlink="http://www.w3.org/1999/xlink" width="200.78125" height="200"><defs><style type="text/css"></style></defs><path d="M795.482666 1023.980801H597.737373a35.837335 35.837335 0 0 1-36.477287-36.477287v-318.696297H447.988511v315.496535a35.837335 35.837335 0 0 1-36.477287 36.477287h-191.985721a110.071813 110.071813 0 0 1-110.071814-110.071813v-319.976202h-23.678239A85.753622 85.753622 0 0 1 0.021828 503.059545a82.55386 82.55386 0 0 1 23.678239-59.515574L395.512414 49.973243a159.988101 159.988101 0 0 1 225.903198-6.399524 15.358858 15.358858 0 0 0 6.399524 6.399524l371.812347 393.570728a85.753622 85.753622 0 0 1 0 121.590957 83.193812 83.193812 0 0 1-60.155526 23.678239h-31.997621v319.976202a110.071813 110.071813 0 0 1-111.99167 115.191432z m-159.348149-76.154336h159.348149a39.677049 39.677049 0 0 0 38.397144-38.397144V552.33588a35.837335 35.837335 0 0 1 36.477287-36.477287h68.474907a12.159096 12.159096 0 0 0 11.519143-8.319381 13.439 13.439 0 0 0 0-14.078953L575.978991 101.169436a85.753622 85.753622 0 0 0-122.870861-3.199762v3.199762L76.176164 493.460259a12.799048 12.799048 0 0 0 0 17.278715 11.519143 11.519143 0 0 0 9.599286 0h59.515574a35.837335 35.837335 0 0 1 36.477287 36.477287v359.013298a39.037097 39.037097 0 0 0 38.397144 38.397144H377.593746v-275.819486A73.594526 73.594526 0 0 1 451.188273 595.212691h113.271575A72.954574 72.954574 0 0 1 639.974232 668.807217z" p-id="1969"></path></svg>