<?xml version="1.0" standalone="no"?><!DOCTYPE svg PUBLIC "-//W3C//DTD SVG 1.1//EN" "http://www.w3.org/Graphics/SVG/1.1/DTD/svg11.dtd"><svg t="1591236888501" class="icon" viewBox="0 0 1074 1024" version="1.1" xmlns="http://www.w3.org/2000/svg" p-id="2013" xmlns:xlink="http://www.w3.org/1999/xlink" width="209.765625" height="200"><defs><style type="text/css"></style></defs><path d="M1031.639403 293.917212L545.63552 4.997498c-6.168059-3.426699-12.923552-5.091096-19.58114-4.99319-6.657587-0.097906-13.413081 1.468585-19.581139 4.99319L20.469357 293.917212c-18.8958 10.573815-25.749198 34.952334-15.273288 54.043945C15.769884 367.052768 39.854686 373.906167 58.750485 363.332352L513.620357 92.329381c7.636644-4.601568 17.231403-4.601568 24.868047 0l454.869871 271.002971c18.8958 10.573815 42.980601 3.720417 53.554417-15.371195 10.47591-19.091611 3.622511-43.372224-15.273289-54.043945z" fill="" p-id="2014"></path><path d="M905.63477 371.066902l-349.52334-205.504059c-18.602083-10.965438-41.512016-10.965438-60.114099 0l-349.523341 205.504059c-18.308365 10.769627-29.665426 30.546578-29.665426 51.987926v467.499706c0 33.287937 26.728255 60.212004 59.722476 60.212004h698.948775c32.99422 0 59.722476-26.924067 59.722476-60.212004V423.054828c0-21.441348-11.259155-41.218299-29.567521-51.987926zM383.60159 845.517913c0 8.321984-6.755493 15.077477-14.979572 15.077478H231.847759c-8.224079 0-14.979572-6.755493-14.979572-15.077478v-138.047034c0-8.321984 6.755493-15.077477 14.979572-15.077477h136.872165c8.224079 0 14.979572 6.755493 14.979572 15.077477v138.047034z m0-220.581537c0 8.321984-6.755493 15.077477-14.979572 15.077478H231.847759c-8.224079 0-14.979572-6.755493-14.979572-15.077478v-138.047034c0-8.321984 6.755493-15.077477 14.979572-15.077477h136.872165c8.224079 0 14.979572 6.755493 14.979572 15.077477v138.047034z m217.252743 220.581537c0 8.321984-6.755493 15.077477-14.979571 15.077478H449.002596c-8.224079 0-14.979572-6.755493-14.979572-15.077478v-138.047034c0-8.321984 6.755493-15.077477 14.979572-15.077477h136.872166c8.224079 0 14.979572 6.755493 14.979571 15.077477v138.047034z m0-220.581537c0 8.321984-6.755493 15.077477-14.979571 15.077478H449.002596c-8.224079 0-14.979572-6.755493-14.979572-15.077478v-138.047034c0-8.321984 6.755493-15.077477 14.979572-15.077477h136.872166c8.224079 0 14.979572 6.755493 14.979571 15.077477v138.047034z m213.630233 220.581537c0 8.321984-6.755493 15.077477-14.979572 15.077478H662.632829c-8.224079 0-14.979572-6.755493-14.979572-15.077478v-138.047034c0-8.321984 6.755493-15.077477 14.979572-15.077477h136.872165c8.224079 0 14.979572 6.755493 14.979572 15.077477v138.047034z" fill="" p-id="2015"></path></svg>