<?xml version="1.0" standalone="no"?><!DOCTYPE svg PUBLIC "-//W3C//DTD SVG 1.1//EN" "http://www.w3.org/Graphics/SVG/1.1/DTD/svg11.dtd"><svg t="1591608958992" class="icon" viewBox="0 0 1024 1024" version="1.1" xmlns="http://www.w3.org/2000/svg" p-id="3361" xmlns:xlink="http://www.w3.org/1999/xlink" width="200" height="200"><defs><style type="text/css"></style></defs><path d="M518.86419697 536.88271399c-9.43827083 0-16.30246778-6.86419697-16.3024678-16.30246779v-12.87036929c0-9.43827083 6.86419697-17.16049241 16.3024678-17.16049241s17.16049241 6.86419697 17.1604924 16.30246778v12.8703693c0 9.43827083-7.72222158 17.16049241-17.1604924 17.16049241zM514.57407386 329.24075586c-9.43827083 0-16.30246778-6.86419697-16.30246777-16.30246777v-13.72839392c0-9.43827083 6.86419697-17.16049241 16.30246777-17.16049242s17.16049241 6.86419697 17.16049241 16.30246779v13.72839392c-0.85802462 9.43827083-7.72222158 16.30246778-17.16049241 17.1604924z" p-id="3362"></path><path d="M513.71604925 515.43209849c-33.46296019 0-56.62962496-21.4506155-63.49382193-28.31481248-6.00617233-6.86419697-6.00617233-17.16049241 0-24.02468938 6.86419697-6.00617233 17.16049241-6.00617233 24.02468938 0 3.43209849 3.43209849 20.59259088 19.73456627 43.75925563 18.01851704 12.01234468-0.85802462 31.74691093-7.72222158 36.03703406-20.5925909 2.57407386-8.5802462-0.85802462-19.73456627-7.72222158-28.31481248-7.72222158-8.5802462-18.87654164-10.29629546-36.03703406-12.01234467-18.01851702-1.71604925-39.46913252-4.29012309-54.91357571-24.02468936-12.01234468-16.30246778-15.44444316-38.61110791-8.5802462-57.48764958 10.29629546-27.45678784 42.04320639-38.61110791 66.92592041-37.75308328 29.17283709 0.85802462 48.04937876 19.73456627 54.91357571 27.45678785 6.00617233 6.86419697 5.14814772 17.16049241-1.71604925 23.16666475-6.86419697 6.00617233-17.16049241 5.14814772-23.16666478-1.71604926-3.43209849-3.43209849-13.72839391-15.44444316-30.88888631-16.30246777-13.72839391-0.85802462-30.03086171 5.14814772-34.32098481 17.1604924-2.57407386 7.72222158-0.85802462 18.01851702 4.2901231 24.88271397 6.00617233 7.72222158 15.44444316 9.43827083 31.74691095 11.15432007 18.01851702 1.71604925 40.32715715 4.29012309 57.48764956 23.16666477 14.58641855 16.30246778 20.59259088 40.32715715 14.58641855 60.06172343-8.5802462 29.17283709-40.32715715 42.04320639-64.35184651 44.61728025-3.43209849 0.85802462-6.00617233 0.85802462-8.58024621 0.85802463z" p-id="3363"></path><path d="M925.56786701 631.26542222H107.01237919c-9.43827083 0-16.30246778-7.72222158-16.30246779-16.30246778V204.82718591c0-9.43827083 7.72222158-16.30246778 16.30246779-16.3024678h818.55548782c9.43827083 0 16.30246778 7.72222158 16.30246778 16.3024678v409.27774391c0 9.43827083-6.86419697 17.16049241-16.30246778 17.1604924zM124.17287161 597.80246203h785.09252761V221.98767833H124.17287161V597.80246203zM925.56786701 730.79627821H107.01237919c-9.43827083 0-16.30246778-7.72222158-16.30246779-16.3024678s7.72222158-16.30246778 16.30246779-16.30246779h818.55548782c9.43827083 0 16.30246778 7.72222158 16.30246778 16.30246779s-6.86419697 16.30246778-16.30246778 16.3024678zM925.56786701 835.47528189H107.01237919c-9.43827083 0-16.30246778-7.72222158-16.30246779-16.3024678 0-9.43827083 7.72222158-16.30246778 16.30246779-16.3024678h818.55548782c9.43827083 0 16.30246778 7.72222158 16.30246778 16.3024678 0 9.43827083-6.86419697 16.30246778-16.30246778 16.3024678z" p-id="3364"></path><path d="M107.01237919 342.11112517c-9.43827083 0-16.30246778-7.72222158-16.30246779-16.30246779v-120.12344683c0-9.43827083 7.72222158-16.30246778 16.30246779-16.30246779h120.12344685c9.43827083 0 16.30246778 7.72222158 16.30246779 16.30246779 0.85802462 74.64814197-60.91974805 136.42591466-136.42591464 136.42591462z m17.16049242-120.12344684v85.80246202c43.75925563-6.86419697 78.08024046-42.04320639 85.80246203-85.80246202h-85.80246203zM925.56786701 342.11112517c-75.50616659 0-137.28393923-61.77777268-137.28393927-137.28393926 0-9.43827083 7.72222158-16.30246778 16.3024678-16.3024678h120.12344687c9.43827083 0 16.30246778 7.72222158 16.30246778 16.3024678v120.12344685c0.85802462 9.43827083-6.00617233 17.16049241-15.44444318 17.16049241z m-102.10492982-120.12344684c6.86419697 43.75925563 42.04320639 78.08024046 85.80246203 85.80246202v-85.80246202h-85.80246203zM925.56786701 631.26542222h-120.12344685c-9.43827083 0-16.30246778-7.72222158-16.30246778-16.30246778 0-75.50616659 61.77777268-137.28393923 137.28393927-137.28393925 9.43827083 0 16.30246778 7.72222158 16.30246776 16.30246779v120.12344684c-0.85802462 9.43827083-7.72222158 17.16049241-17.1604924 17.1604924z m-102.10492982-33.46296019h85.80246203v-85.80246203c-43.75925563 6.86419697-78.93826508 42.04320639-85.80246203 85.80246203z" p-id="3365"></path><path d="M227.13582604 631.26542222h-120.12344685c-9.43827083 0-16.30246778-7.72222158-16.30246779-16.30246778V494.83950759c0-9.43827083 7.72222158-16.30246778 16.30246779-16.30246778 75.50616659 0 137.28393923 61.77777268 137.28393926 137.28393926 0 7.72222158-7.72222158 15.44444316-17.16049241 15.44444315z m-102.96295443-33.46296019h85.80246203c-6.86419697-43.75925563-42.04320639-78.08024046-85.80246203-85.80246203v85.80246203z" p-id="3366"></path><path d="M618.39505292 631.26542222H414.18519329c-2.57407386 0-5.14814772-0.85802462-7.72222159-1.71604923-84.0864128-42.04320639-135.56789002-126.12961919-135.56789004-219.65430281S323.23458353 232.28397375 406.4629717 190.24076735c2.57407386-0.85802462 5.14814772-1.71604925 7.72222159-1.71604924h203.35183501c2.57407386 0 5.14814772 0.85802462 7.72222159 1.71604924C709.34566268 232.28397375 760.82713991 316.37038655 760.82713991 409.89507018s-52.33950186 177.61109642-135.56789002 219.65430281c-1.71604925 0.85802462-4.29012309 1.71604925-6.86419697 1.71604923zM418.47531638 597.80246203h195.62961344c70.35801887-36.89505866 114.11727449-108.11110217 114.1172745-187.90739185s-43.75925563-151.01233319-114.1172745-187.90739185H418.47531638c-70.35801887 36.89505866-114.11727449 108.11110217-114.1172745 187.90739185 0 79.79628971 43.75925563 151.01233319 114.1172745 187.90739185z" p-id="3367"></path></svg>