<?xml version="1.0" standalone="no"?><!DOCTYPE svg PUBLIC "-//W3C//DTD SVG 1.1//EN" "http://www.w3.org/Graphics/SVG/1.1/DTD/svg11.dtd"><svg t="1591236950801" class="icon" viewBox="0 0 1107 1024" version="1.1" xmlns="http://www.w3.org/2000/svg" p-id="1220" xmlns:xlink="http://www.w3.org/1999/xlink" width="216.2109375" height="200"><defs><style type="text/css"></style></defs><path d="M229.748 1023.907V342.76c0-27.16-20.875-48.058-45.94-48.058H45.964c-25.042 0-45.94 22.97-45.94 48.058v681.146h229.724z m292.376 0V50.246c0-27.183-20.876-50.153-45.94-50.153H338.338c-25.065 0-45.94 22.97-45.94 50.153v973.66h229.725z m292.375 0v-430.43c0-27.158-20.876-50.129-45.94-50.129H630.737c-25.064 0-45.963 22.97-45.963 50.13v430.429h229.725z m292.375 0V342.76c0-27.16-20.875-48.058-45.94-48.058H923.089c-25.041 0-45.94 22.97-45.94 48.058v681.146h229.725z" fill="#3399FF" p-id="1221"></path></svg>