<?xml version="1.0" standalone="no"?><!DOCTYPE svg PUBLIC "-//W3C//DTD SVG 1.1//EN" "http://www.w3.org/Graphics/SVG/1.1/DTD/svg11.dtd"><svg t="1591236387548" class="icon" viewBox="0 0 1024 1024" version="1.1" xmlns="http://www.w3.org/2000/svg" p-id="1233" xmlns:xlink="http://www.w3.org/1999/xlink" width="200" height="200"><defs><style type="text/css"></style></defs><path d="M514.5 153c96.1 0 174.3 78.2 174.3 174.3 0 96.1-78.2 174.3-174.3 174.3s-174.3-78.2-174.3-174.3c0-96.1 78.2-174.3 174.3-174.3m0-54.5c-126.3 0-228.7 102.4-228.7 228.7 0 126.3 102.4 228.7 228.7 228.7s228.7-102.4 228.7-228.7c0-126.3-102.4-228.7-228.7-228.7z" fill="#0C90F8" p-id="1234"></path><path d="M147.7 925.5c-15 0-27.2-12.2-27.2-27.2 0-217.3 176.8-394.1 394.1-394.1 15 0 27.2 12.2 27.2 27.2s-12.2 27.2-27.2 27.2C327.3 558.6 175 711 175 898.2c-0.1 15.1-12.3 27.3-27.3 27.3z" fill="#0C90F8" p-id="1235"></path><path d="M705.9 576c29.4 0 53.3 23.9 53.3 53.3s-23.9 53.3-53.3 53.3-53.3-23.9-53.3-53.3 23.9-53.3 53.3-53.3m0-54.4c-59.5 0-107.7 48.2-107.7 107.7S646.4 737 705.9 737s107.7-48.2 107.7-107.7-48.2-107.7-107.7-107.7z" fill="#4C4F54" p-id="1236"></path><path d="M533.1 925.5c-15 0-27.2-12.2-27.2-27.2 0-110.3 89.7-200 200-200 15 0 27.2 12.2 27.2 27.2s-12.2 27.2-27.2 27.2c-80.3 0-145.6 65.3-145.6 145.6 0 15-12.1 27.2-27.2 27.2z" fill="#4C4F54" p-id="1237"></path><path d="M876.3 925.5c-15 0-27.2-12.2-27.2-27.2 0-80.3-65.3-145.6-145.6-145.6-15 0-27.2-12.2-27.2-27.2s12.2-27.2 27.2-27.2c110.3 0 200 89.7 200 200 0.1 15-12.1 27.2-27.2 27.2z" fill="#4C4F54" p-id="1238"></path></svg>